<svg xmlns="http://www.w3.org/2000/svg" xmlns:xlink="http://www.w3.org/1999/xlink" viewBox="0 636 1961 640">
  <defs>
    <style>
      .cls-1 {
        clip-path: url(#clip-Mancala_Game_Board);
      }

      .cls-2, .cls-8, .cls-9 {
        fill: #eadbc2;
      }

      .cls-3 {
        fill: #e48247;
      }

      .cls-4 {
        fill: rgba(218,181,0,0.2);
      }

      .cls-5 {
        fill: #dab500;
      }

      .cls-6 {
        fill: #e24a30;
      }

      .cls-7 {
        fill: #ef6e53;
      }

      .cls-8 {
        font-size: 30px;
      }

      .cls-8, .cls-9 {
        font-family: HelveticaNeue-Medium, Helvetica Neue;
        font-weight: 500;
      }

      .cls-9 {
        font-size: 60px;
      }

      .cls-10 {
        fill: #fff;
      }
    </style>
    <clipPath id="clip-Mancala_Game_Board">
      <rect y="636" width="1961" height="640"/>
    </clipPath>
  </defs>
  <g id="Mancala_Game_Board" data-name="Mancala Game Board" class="cls-1">
    <rect class="cls-10" y="636" width="1961" height="640"/>
    <rect id="Rectangle_18" data-name="Rectangle 18" class="cls-2" width="1961" height="640" transform="translate(0 636)"/>
    <rect id="Rectangle_4" data-name="Rectangle 4" class="cls-3" width="200" height="560" rx="30" transform="translate(40 676)"/>
    <rect id="Rectangle_5" data-name="Rectangle 5" class="cls-3" width="200" height="560" rx="30" transform="translate(1720 676)"/>
    <rect id="Rectangle_6" data-name="Rectangle 6" class="cls-4" width="200" height="200" rx="30" transform="translate(280 676)"/>
    <rect id="Rectangle_7" data-name="Rectangle 7" class="cls-4" width="200" height="200" rx="30" transform="translate(760 676)"/>
    <rect id="Rectangle_8" data-name="Rectangle 8" class="cls-4" width="200" height="200" rx="30" transform="translate(520 676)"/>
    <rect id="Rectangle_9" data-name="Rectangle 9" class="cls-4" width="200" height="200" rx="30" transform="translate(1480 676)"/>
    <rect id="Rectangle_10" data-name="Rectangle 10" class="cls-4" width="200" height="200" rx="30" transform="translate(1240 676)"/>
    <rect id="Rectangle_11" data-name="Rectangle 11" class="cls-4" width="200" height="200" rx="30" transform="translate(1000 676)"/>
    <rect id="Rectangle_12" data-name="Rectangle 12" class="cls-5" width="200" height="200" rx="30" transform="translate(280.5 1036)"/>
    <rect id="Rectangle_13" data-name="Rectangle 13" class="cls-5" width="200" height="200" rx="30" transform="translate(760.5 1036)"/>
    <rect id="Rectangle_14" data-name="Rectangle 14" class="cls-5" width="200" height="200" rx="30" transform="translate(520.5 1036)"/>
    <rect id="Rectangle_15" data-name="Rectangle 15" class="cls-5" width="200" height="200" rx="30" transform="translate(1481 1036)"/>
    <rect id="Rectangle_16" data-name="Rectangle 16" class="cls-5" width="200" height="200" rx="30" transform="translate(1240.5 1036)"/>
    <rect id="Rectangle_17" data-name="Rectangle 17" class="cls-5" width="200" height="200" rx="30" transform="translate(1001 1036)"/>
    <circle id="Ellipse_1" data-name="Ellipse 1" class="cls-6" cx="17.5" cy="17.5" r="17.5" transform="translate(325 1076)"/>
    <rect id="Rectangle_19" data-name="Rectangle 19" class="cls-7" width="280" height="80" rx="30" transform="translate(480 916)"/>
    <rect id="Rectangle_20" data-name="Rectangle 20" class="cls-7" width="280" height="80" rx="30" transform="translate(1200 916)"/>
    <text id="RESET" class="cls-8" transform="translate(573 967.5)"><tspan x="0" y="0">RESET</tspan></text>
    <text id="NEW_GAME" data-name="NEW GAME" class="cls-8" transform="translate(1256 967.5)"><tspan x="0" y="0">NEW GAME</tspan></text>
    <text id="_15" data-name="15" class="cls-9" transform="translate(107 979)"><tspan x="0" y="0">15</tspan></text>
    <text id="_11" data-name="11" class="cls-9" transform="translate(1787 979)"><tspan x="0" y="0">11</tspan></text>
    <circle id="Ellipse_2" data-name="Ellipse 2" class="cls-6" cx="17.5" cy="17.5" r="17.5" transform="translate(405 1076)"/>
    <circle id="Ellipse_3" data-name="Ellipse 3" class="cls-6" cx="17.5" cy="17.5" r="17.5" transform="translate(325 1161)"/>
    <circle id="Ellipse_4" data-name="Ellipse 4" class="cls-6" cx="17.5" cy="17.5" r="17.5" transform="translate(405 1161)"/>
    <circle id="Ellipse_7" data-name="Ellipse 7" class="cls-6" cx="17.5" cy="17.5" r="17.5" transform="translate(886 1071)"/>
    <circle id="Ellipse_8" data-name="Ellipse 8" class="cls-6" cx="17.5" cy="17.5" r="17.5" transform="translate(363 759)"/>
    <circle id="Ellipse_9" data-name="Ellipse 9" class="cls-6" cx="17.5" cy="17.5" r="17.5" transform="translate(801 1166)"/>
    <circle id="Ellipse_10" data-name="Ellipse 10" class="cls-6" cx="17.5" cy="17.5" r="17.5" transform="translate(1125 1066)"/>
    <circle id="Ellipse_11" data-name="Ellipse 11" class="cls-6" cx="17.5" cy="17.5" r="17.5" transform="translate(1083 1119)"/>
    <circle id="Ellipse_12" data-name="Ellipse 12" class="cls-6" cx="17.5" cy="17.5" r="17.5" transform="translate(1040 1171)"/>
    <circle id="Ellipse_15" data-name="Ellipse 15" class="cls-6" cx="17.5" cy="17.5" r="17.5" transform="translate(1563 1119)"/>
    <circle id="Ellipse_16" data-name="Ellipse 16" class="cls-6" cx="17.5" cy="17.5" r="17.5" transform="translate(1610 806)"/>
    <circle id="Ellipse_17" data-name="Ellipse 17" class="cls-6" cx="17.5" cy="17.5" r="17.5" transform="translate(1516 806)"/>
    <circle id="Ellipse_18" data-name="Ellipse 18" class="cls-6" cx="17.5" cy="17.5" r="17.5" transform="translate(1610 712)"/>
    <circle id="Ellipse_19" data-name="Ellipse 19" class="cls-6" cx="17.5" cy="17.5" r="17.5" transform="translate(1515 712)"/>
    <circle id="Ellipse_20" data-name="Ellipse 20" class="cls-6" cx="17.5" cy="17.5" r="17.5" transform="translate(1323 759)"/>
    <circle id="Ellipse_21" data-name="Ellipse 21" class="cls-6" cx="17.5" cy="17.5" r="17.5" transform="translate(1083 759)"/>
    <circle id="Ellipse_22" data-name="Ellipse 22" class="cls-6" cx="17.5" cy="17.5" r="17.5" transform="translate(891 806)"/>
    <circle id="Ellipse_23" data-name="Ellipse 23" class="cls-6" cx="17.5" cy="17.5" r="17.5" transform="translate(797 806)"/>
    <circle id="Ellipse_24" data-name="Ellipse 24" class="cls-6" cx="17.5" cy="17.5" r="17.5" transform="translate(891 712)"/>
    <circle id="Ellipse_25" data-name="Ellipse 25" class="cls-6" cx="17.5" cy="17.5" r="17.5" transform="translate(796 712)"/>
    <circle id="Ellipse_26" data-name="Ellipse 26" class="cls-6" cx="17.5" cy="17.5" r="17.5" transform="translate(841 761)"/>
  </g>
</svg>
